# xmcd
#
# Track frame offsets:
#	150
#	14028
#	28495
#	43759
#	57637
#	71555
#	86115
#	100477
#	114557
#	124664
#	139188
#	151855
#
# Disc length: 2218 seconds
#
# Revision: 0
# Processed by: cddbd v1.5.2PL0 Copyright (c) Steve Scherf et al.
# Submitted via: EasyCDDAExtractor 16.0.6.1
#
DISCID=b308a80c
DTITLE=Συλλογικός δίσκος - Μιά φούντωση μιά φλόγα-Μ. Βαμβακάρης
DYEAR=1998
DGENRE=Ρεμπέτικη
TTITLE0=Βαμβακάρης Μάρκος-Πετρίδου Έλλη - Θά 'ρθω να σε ξυπνήσω [Μάρκος Βαμβακ
TTITLE0=άρης]
TTITLE1=Βαμβακάρης Μάρκος - Φραγκοσυριανή [Μάρκος Βαμβακάρης]
TTITLE2=Βαμβακάρης Μάρκος - Χθες το βράδυ στο σκοτάδι [Μάρκος Βαμβακάρης]
TTITLE3=Τσαουσάκης Πρόδρομος - Ρίξε τσιγγάνα τα χαρτιά [Μάρκος Βαμβακάρης]
TTITLE4=Βαμβακάρης Μάρκος - Νόστιμο τρελλό μικρό μου [Μάρκος Βαμβακάρης]
TTITLE5=Βαμβακάρης Μάρκος-Παγιουμτζής Στράτος - Τα καραβοτσακίσματα [Μάρκος Βα
TTITLE5=μβακάρης]
TTITLE6=Βαμβακάρης Μάρκος - Ο Μάρκος υπουργός [Μάρκος Βαμβακάρης]
TTITLE7=Βαμβακάρης Μάρκος - Τα μπλε παράθυρά σου [Μάρκος Βαμβακάρης]
TTITLE8=Μοσχολιού Βίκυ - Αλεξανδριανή [Μάρκος Βαμβακάρης]
TTITLE9=Ζαμπέτας Γιώργος - Να μ' αξιώσει ο Θεός [Μάρκος Βαμβακάρης]
TTITLE10=Γκρέκα Άντζελα-Μπιθικώτσης Γρηγόρης - Μαύρα μάτια, μαύρα φρύδια [Μάρκ
TTITLE10=ος Βαμβακάρης]
TTITLE11=Βαμβακάρης Μάρκος - Γαϊτανοφρυδούσα [Μάρκος Βαμβακάρης]
EXTD=
EXTT0=
EXTT1=
EXTT2=
EXTT3=
EXTT4=
EXTT5=
EXTT6=
EXTT7=
EXTT8=
EXTT9=
EXTT10=
EXTT11=
PLAYORDER=
